<svg width="50" height="50" viewBox="0 0 50 50" fill="none" xmlns="http://www.w3.org/2000/svg">
<rect x="1.5" y="1.5" width="47" height="47" rx="23.5" stroke="#131313" stroke-width="3"/>
<g clip-path="url(#clip0_154_229)">
<path d="M32.5749 25.8729C33.057 25.3902 33.0564 24.608 32.5737 24.1259L24.7071 16.2698C24.2244 15.7877 23.4422 15.7883 22.9602 16.271C22.4781 16.7537 22.4786 17.5359 22.9613 18.018L29.9538 25.0012L22.9706 31.9937C22.4885 32.4764 22.4891 33.2586 22.9718 33.7406C23.4545 34.2227 24.2367 34.2222 24.7188 33.7395L32.5749 25.8729ZM18.4102 25.0088L18.411 26.2441L31.7016 26.2353L31.7008 25L31.7 23.7647L18.4093 23.7736L18.4102 25.0088Z" fill="#131313"/>
</g>
<defs>
<clipPath id="clip0_154_229">
<rect width="19.7647" height="19.7647" fill="white" transform="translate(15.1172 15.1177)"/>
</clipPath>
</defs>
</svg>
