<svg width="50" height="50" viewBox="0 0 50 50" fill="none" xmlns="http://www.w3.org/2000/svg">
<rect x="1.5" y="1.5" width="47" height="47" rx="23.2058" stroke="#131313" stroke-width="3"/>
<g clip-path="url(#clip0_137_161)">
<path d="M17.4242 25.8724C16.9421 25.3897 16.9426 24.6075 17.4253 24.1254L25.2919 16.2693C25.7746 15.7872 26.5568 15.7878 27.0389 16.2705C27.521 16.7532 27.5204 17.5354 27.0377 18.0175L20.0452 25.0007L27.0284 31.9932C27.5105 32.4759 27.51 33.2581 27.0272 33.7402C26.5445 34.2222 25.7624 34.2217 25.2803 33.739L17.4242 25.8724ZM31.5889 25.0084L31.588 26.2436L18.2974 26.2348L18.2982 24.9995L18.299 23.7642L31.5897 23.7731L31.5889 25.0084Z" fill="#131313"/>
</g>
<defs>
<clipPath id="clip0_137_161">
<rect width="19.7647" height="19.7647" fill="white" transform="matrix(-1 0 0 1 34.8828 15.1177)"/>
</clipPath>
</defs>
</svg>
