<svg width="49" height="49" viewBox="0 0 49 49" fill="none" xmlns="http://www.w3.org/2000/svg">
<rect x="1.5" y="1.5" width="46" height="46" rx="22.8477" stroke="#131313" stroke-width="3"/>
<path d="M25.3366 31.7922C21.0904 31.7922 17.935 28.6172 17.935 24.6826C17.935 20.7286 21.0904 17.5731 25.3366 17.5731C28.2389 17.5731 30.1867 19.034 31.1801 20.2027L29.2128 21.9557C28.4142 21.1571 27.2845 20.2416 25.3366 20.2416C22.824 20.2416 20.8956 22.1894 20.8956 24.6826C20.8956 27.1564 22.824 29.1042 25.3366 29.1042C27.2845 29.1042 28.4531 28.2082 29.2907 27.3512L31.2775 29.1042C30.2257 30.3313 28.2389 31.7922 25.3366 31.7922Z" fill="#131313"/>
</svg>
