<svg width="107" height="49" viewBox="0 0 107 49" fill="none" xmlns="http://www.w3.org/2000/svg">
<path d="M53.5 1.5C68.1085 1.5 81.2616 4.21503 90.7061 8.54004C100.282 12.9252 105.5 18.6786 105.5 24.5C105.5 30.3214 100.282 36.0748 90.7061 40.46C81.2616 44.785 68.1085 47.5 53.5 47.5C38.8915 47.5 25.7384 44.785 16.2939 40.46C6.71834 36.0748 1.5 30.3214 1.5 24.5C1.5 18.6786 6.71834 12.9252 16.2939 8.54004C25.7384 4.21503 38.8915 1.5 53.5 1.5Z" stroke="#131313" stroke-width="3"/>
<rect x="30.5" y="1.5" width="46" height="46" rx="22.8477" stroke="#131313" stroke-width="3"/>
<path d="M54.3366 31.7922C50.0904 31.7922 46.935 28.6172 46.935 24.6826C46.935 20.7286 50.0904 17.5731 54.3366 17.5731C57.2389 17.5731 59.1867 19.034 60.1801 20.2027L58.2128 21.9557C57.4142 21.1571 56.2845 20.2416 54.3366 20.2416C51.824 20.2416 49.8956 22.1894 49.8956 24.6826C49.8956 27.1564 51.824 29.1042 54.3366 29.1042C56.2845 29.1042 57.4531 28.2082 58.2907 27.3512L60.2775 29.1042C59.2257 30.3313 57.2389 31.7922 54.3366 31.7922Z" fill="#131313"/>
</svg>
