<svg width="80" height="49" viewBox="0 0 80 49" fill="none" xmlns="http://www.w3.org/2000/svg">
<path d="M18.916 30.5H16.156V17.62H18.916V30.5ZM26.2406 30.5H23.5174V17.62H25.9646L32.239 25.9H32.3126V17.62H35.0174V30.5H32.5886L26.2958 22.2016H26.2406V30.5ZM42.3717 30.5H39.6117V17.62H48.9957V20.2328H42.3717V23.1768H47.5237V25.716H42.3717V30.5ZM58.3494 30.776C54.3382 30.776 51.3574 27.7768 51.3574 24.06C51.3574 20.3248 54.3382 17.344 58.3494 17.344C62.3422 17.344 65.3414 20.3248 65.3414 24.06C65.3414 27.7768 62.3422 30.776 58.3494 30.776ZM58.3494 28.2368C60.6862 28.2368 62.5262 26.3968 62.5262 24.06C62.5262 21.7048 60.6862 19.8648 58.3494 19.8648C55.9942 19.8648 54.1542 21.7048 54.1542 24.06C54.1542 26.3968 55.9942 28.2368 58.3494 28.2368Z" fill="#131313"/>
<path d="M1.5 5.33333V43.6667C1.5 45.7838 3.21624 47.5 5.33333 47.5H60.2125H74.6667C76.7838 47.5 78.5 45.7838 78.5 43.6667V32.9333V5.33333C78.5 3.21624 76.7838 1.5 74.6667 1.5H5.33333C3.21624 1.5 1.5 3.21624 1.5 5.33333Z" stroke="#131313" stroke-width="3"/>
</svg>
